<svg width="112" height="79" viewBox="0 0 112 79" fill="none" xmlns="http://www.w3.org/2000/svg">
<path d="M8.3125 14.2857L36.2917 4V24.9261L54 33.7931V54.0098L28.1458 64.2956L8.3125 54.0098V33.7931V14.2857Z" fill="#3F4021"/>
<path d="M8.3125 33.7931V14.2857L36.2917 4V24.9261L54 33.7931V54.0098L28.1458 64.2956M8.3125 33.7931L28.1458 43.3695V64.2956M8.3125 33.7931V54.0098L28.1458 64.2956M28.1458 64.2956L3 74.5813M28.1458 64.2956L54 76" stroke="#DFDFDF" stroke-width="5" stroke-linecap="round"/>
<path d="M55.62 62.72H57.48V71H55.62V62.72ZM55.48 59.72C55.48 59.4267 55.5933 59.18 55.82 58.98C56.06 58.78 56.32 58.68 56.6 58.68C56.88 58.68 57.1267 58.78 57.34 58.98C57.5667 59.18 57.68 59.4267 57.68 59.72C57.68 60.0267 57.5667 60.28 57.34 60.48C57.1267 60.6667 56.88 60.76 56.6 60.76C56.32 60.76 56.06 60.66 55.82 60.46C55.5933 60.26 55.48 60.0133 55.48 59.72ZM59.9781 66.78C59.9781 65.9533 60.1715 65.2067 60.5581 64.54C60.9581 63.8733 61.5048 63.3467 62.1981 62.96C62.8915 62.5733 63.6781 62.38 64.5581 62.38C65.4648 62.38 66.2581 62.5733 66.9381 62.96C67.6181 63.3467 68.1448 63.8733 68.5181 64.54C68.8915 65.2067 69.0781 65.9533 69.0781 66.78C69.0781 67.6067 68.8915 68.36 68.5181 69.04C68.1448 69.7067 67.6115 70.2333 66.9181 70.62C66.2381 71.0067 65.4448 71.2 64.5381 71.2C63.6581 71.2 62.8715 71.02 62.1781 70.66C61.4981 70.2867 60.9581 69.7733 60.5581 69.12C60.1715 68.4533 59.9781 67.6733 59.9781 66.78ZM61.8381 66.8C61.8381 67.3333 61.9581 67.82 62.1981 68.26C62.4381 68.6867 62.7581 69.0267 63.1581 69.28C63.5715 69.5333 64.0248 69.66 64.5181 69.66C65.0381 69.66 65.4981 69.5333 65.8981 69.28C66.3115 69.0267 66.6315 68.6867 66.8581 68.26C67.0848 67.82 67.1981 67.3333 67.1981 66.8C67.1981 66.2667 67.0848 65.7867 66.8581 65.36C66.6315 64.92 66.3115 64.5733 65.8981 64.32C65.4981 64.0533 65.0381 63.92 64.5181 63.92C64.0115 63.92 63.5515 64.0533 63.1381 64.32C62.7381 64.5867 62.4181 64.94 62.1781 65.38C61.9515 65.8067 61.8381 66.28 61.8381 66.8ZM70.8766 66.78C70.8766 65.9533 71.0699 65.2067 71.4566 64.54C71.8566 63.8733 72.4032 63.3467 73.0966 62.96C73.7899 62.5733 74.5766 62.38 75.4566 62.38C76.3632 62.38 77.1566 62.5733 77.8366 62.96C78.5166 63.3467 79.0432 63.8733 79.4166 64.54C79.7899 65.2067 79.9766 65.9533 79.9766 66.78C79.9766 67.6067 79.7899 68.36 79.4166 69.04C79.0432 69.7067 78.5099 70.2333 77.8166 70.62C77.1366 71.0067 76.3432 71.2 75.4366 71.2C74.5566 71.2 73.7699 71.02 73.0766 70.66C72.3966 70.2867 71.8566 69.7733 71.4566 69.12C71.0699 68.4533 70.8766 67.6733 70.8766 66.78ZM72.7366 66.8C72.7366 67.3333 72.8566 67.82 73.0966 68.26C73.3366 68.6867 73.6566 69.0267 74.0566 69.28C74.4699 69.5333 74.9232 69.66 75.4166 69.66C75.9366 69.66 76.3966 69.5333 76.7966 69.28C77.2099 69.0267 77.5299 68.6867 77.7566 68.26C77.9832 67.82 78.0966 67.3333 78.0966 66.8C78.0966 66.2667 77.9832 65.7867 77.7566 65.36C77.5299 64.92 77.2099 64.5733 76.7966 64.32C76.3966 64.0533 75.9366 63.92 75.4166 63.92C74.9099 63.92 74.4499 64.0533 74.0366 64.32C73.6366 64.5867 73.3166 64.94 73.0766 65.38C72.8499 65.8067 72.7366 66.28 72.7366 66.8ZM83.175 71V64.38H81.755V62.72H83.175V59.22C83.175 58.02 83.4417 57.1 83.975 56.46C84.5217 55.82 85.3217 55.5 86.375 55.5C86.655 55.5 86.9617 55.54 87.295 55.62C87.6417 55.7 87.9417 55.8333 88.195 56.02L87.415 57.36C87.295 57.24 87.1617 57.16 87.015 57.12C86.8817 57.0667 86.735 57.04 86.575 57.04C86.0817 57.04 85.7017 57.2067 85.435 57.54C85.1683 57.8733 85.035 58.44 85.035 59.24V62.72H87.395V64.38H85.035V71H83.175ZM88.995 62.72H90.855V71H88.995V62.72ZM88.855 59.72C88.855 59.4267 88.975 59.1867 89.215 59C89.455 58.8 89.715 58.7 89.995 58.7C90.2617 58.7 90.5083 58.8 90.735 59C90.9617 59.1867 91.075 59.4333 91.075 59.74C91.075 60.0467 90.9617 60.3 90.735 60.5C90.5083 60.6867 90.2617 60.78 89.995 60.78C89.715 60.78 89.455 60.68 89.215 60.48C88.975 60.28 88.855 60.0267 88.855 59.72ZM100.817 70.24C100.443 70.5333 99.9966 70.7667 99.4766 70.94C98.9566 71.1133 98.4366 71.2 97.9166 71.2C97.0099 71.2 96.2166 71.02 95.5366 70.66C94.8566 70.3 94.3232 69.8 93.9366 69.16C93.5632 68.5067 93.3766 67.74 93.3766 66.86C93.3766 65.98 93.5766 65.2133 93.9766 64.56C94.3899 63.9067 94.9232 63.4067 95.5766 63.06C96.2432 62.7 96.9566 62.52 97.7166 62.52C98.3832 62.52 98.9766 62.6133 99.4966 62.8C100.03 62.9867 100.483 63.24 100.857 63.56L99.9366 64.76C99.6966 64.5733 99.4032 64.4067 99.0566 64.26C98.7099 64.1133 98.3166 64.04 97.8766 64.04C97.3966 64.04 96.9499 64.1667 96.5366 64.42C96.1366 64.66 95.8166 64.9933 95.5766 65.42C95.3499 65.8467 95.2366 66.3267 95.2366 66.86C95.2366 67.3667 95.3566 67.84 95.5966 68.28C95.8366 68.7067 96.1699 69.0467 96.5966 69.3C97.0232 69.54 97.5099 69.66 98.0566 69.66C98.4166 69.66 98.7432 69.6067 99.0366 69.5C99.3432 69.3933 99.6166 69.2467 99.8566 69.06L100.817 70.24ZM107.058 71.2C106.111 71.2 105.298 71.0133 104.618 70.64C103.938 70.2533 103.411 69.7333 103.038 69.08C102.678 68.4133 102.498 67.6533 102.498 66.8C102.498 65.9867 102.704 65.2467 103.118 64.58C103.531 63.9133 104.084 63.38 104.778 62.98C105.471 62.58 106.244 62.38 107.098 62.38C108.191 62.38 109.098 62.7 109.818 63.34C110.538 63.98 111.024 64.86 111.278 65.98L104.458 68.38L104.018 67.28L109.618 65.24L109.218 65.5C109.058 65.06 108.791 64.68 108.418 64.36C108.044 64.0267 107.558 63.86 106.958 63.86C106.451 63.86 105.998 63.9867 105.598 64.24C105.198 64.48 104.884 64.8133 104.658 65.24C104.431 65.6667 104.318 66.1533 104.318 66.7C104.318 67.2733 104.438 67.78 104.678 68.22C104.918 68.6467 105.244 68.9867 105.658 69.24C106.084 69.48 106.564 69.6 107.098 69.6C107.458 69.6 107.804 69.5333 108.138 69.4C108.484 69.2667 108.804 69.0933 109.098 68.88L109.958 70.26C109.544 70.54 109.078 70.7667 108.558 70.94C108.051 71.1133 107.551 71.2 107.058 71.2Z" fill="#EFEFEF"/>
</svg>
