<svg width="65" height="64" viewBox="0 0 65 64" fill="none" xmlns="http://www.w3.org/2000/svg">
<path d="M26.386 50.975V62.475C26.386 62.6187 26.5282 62.7625 26.8125 62.7625L32.6422 60.3187L38.4719 62.7625C38.6141 62.9062 38.8985 62.7625 38.8985 62.475V50.975" stroke="#4C5159" stroke-width="2" stroke-miterlimit="10"/>
<path d="M45.8657 51.6938L33.211 45.225C32.9266 45.0813 32.6422 45.0813 32.3579 45.225L19.8454 52.125C19.2766 52.4125 18.5657 51.9813 18.5657 51.2625L20.8407 37.0313C20.8407 36.7438 20.8407 36.4563 20.5563 36.3125L10.3188 26.3938C9.75004 25.9625 10.0344 25.1 10.7454 24.9563L24.8219 22.6563C25.1063 22.6563 25.3907 22.3688 25.3907 22.225L31.5047 9.28755C31.7891 8.71255 32.6422 8.5688 33.0688 9.28755L39.4672 22.0813C39.6094 22.3688 39.8938 22.5125 40.1782 22.5125L54.2547 24.3813C54.9657 24.525 55.25 25.3875 54.6813 25.8188L44.586 36.025C44.4438 36.1688 44.3016 36.4563 44.3016 36.7438L46.861 50.8313C47.1454 51.55 46.4344 52.125 45.8657 51.6938Z" stroke="#4C5159" stroke-width="2" stroke-miterlimit="10"/>
<path d="M54.1125 10.15C59.6579 15.7563 63.0704 23.5188 63.0704 32C63.0704 40.4813 59.6579 48.2438 54.1125 53.85" stroke="#4C5159" stroke-width="2" stroke-miterlimit="10"/>
<path d="M10.8875 10.15C16.4328 4.54375 24.1109 1.09375 32.5 1.09375C40.889 1.09375 48.5671 4.54375 54.1125 10.15" stroke="#4C5159" stroke-width="2" stroke-miterlimit="10" stroke-dasharray="2 2"/>
<path d="M10.8875 53.9937C5.34219 48.3875 1.92969 40.6249 1.92969 32.1437C1.92969 23.6624 5.34219 15.9 10.8875 10.2937" stroke="#4C5159" stroke-width="2" stroke-miterlimit="10"/>
</svg>
