<svg width="280" height="277" viewBox="0 0 280 277" fill="none" xmlns="http://www.w3.org/2000/svg">
<path d="M105.73 91.7563C105.302 91.7974 104.884 91.9059 104.491 92.0774C90.3269 98.2839 78.0576 108.059 68.9092 120.427C59.7608 132.794 54.0537 147.32 52.3583 162.553C52.2903 162.856 52.256 163.165 52.2559 163.475C51.0864 175.117 52.3001 186.873 55.8243 198.041C59.3486 209.209 65.1113 219.56 72.7684 228.477C80.4254 237.393 89.8199 244.692 100.391 249.937C110.962 255.182 122.493 258.267 134.296 259.006C136.227 259.129 138.149 259.19 140.064 259.188C162.48 259.251 184.063 250.791 200.351 235.557C217.125 220.02 227.085 198.606 228.099 175.896C229.113 153.186 221.1 130.986 205.776 114.048C205.437 113.353 204.901 112.771 204.235 112.37C195.399 103.037 184.601 95.7342 172.603 90.9772C188.386 87.3512 202.466 78.552 212.556 66.0092C222.645 53.4664 228.151 37.917 228.179 21.8874C228.178 20.807 227.744 19.771 226.972 19.007C226.2 18.2431 225.152 17.8136 224.06 17.8129H207.953C192.886 17.8374 178.208 22.547 165.995 31.2759C153.783 40.0047 144.653 52.3109 139.897 66.4541C135.435 55.9201 127.928 46.9237 118.319 40.5928C108.71 34.2618 97.4255 30.878 85.8804 30.8656H72.9173C71.8259 30.8654 70.7791 31.2938 70.0069 32.0566C69.2346 32.8195 68.8 33.8544 68.7986 34.9341C68.8139 47.2153 72.7687 59.175 80.0934 69.0907C87.4181 79.0065 97.7348 86.3668 109.558 90.1116C108.888 90.3713 108.158 90.5721 107.499 90.8552C106.887 91.1107 106.296 91.412 105.73 91.7563ZM103.329 101.65C105.939 105.899 109.96 109.118 114.704 110.758C120.998 112.612 127.616 113.138 134.129 112.302C140.279 111.325 146.58 111.958 152.407 114.136C153.24 114.483 153.973 115.031 154.538 115.729C155.103 116.427 155.484 117.254 155.644 118.134C155.712 118.878 155.892 120.62 152.286 122.919C150.219 124.102 147.888 124.761 145.501 124.838C141.398 125.349 137.459 126.749 133.965 128.939C130.471 131.128 127.509 134.053 125.289 137.505C121.537 143.499 118.651 149.982 116.714 156.766L115.279 160.976C113.224 169.421 108.052 176.8 100.777 181.664C99.9455 182.16 98.9947 182.425 98.024 182.433C97.0532 182.442 96.098 182.192 95.2578 181.711C93.5078 180.507 93.4115 178.884 93.583 174.894C93.6425 173.609 93.6941 172.316 93.6338 171.06C93.3452 166.62 91.6673 162.379 88.8325 158.924C85.9978 155.47 82.1469 152.974 77.8138 151.783C76.1916 151.373 74.5232 151.169 72.849 151.177C69.2028 151.21 65.6055 152.011 62.2965 153.526C64.9851 142.478 70.0395 132.13 77.1183 123.18C84.1971 114.231 93.1352 106.889 103.329 101.65ZM117.359 247.75C118.837 246.143 120.074 244.336 121.034 242.383C122.616 239.503 123.22 236.197 122.757 232.951C122.294 229.706 120.789 226.694 118.463 224.361C117.126 223.262 115.663 222.323 114.105 221.562C112.644 220.783 111.26 220.057 110.926 219.297C110.593 218.536 111.115 216.765 113.558 214.03C115.622 211.476 118.159 209.336 121.034 207.724C122.154 207.11 123.399 206.757 124.677 206.691C125.955 206.625 127.231 206.848 128.409 207.343C130.397 208.711 132.04 210.513 133.211 212.61C134.953 215.508 137.28 218.02 140.047 219.99C143.257 221.759 146.831 222.786 150.5 222.994C151.915 223.144 153.322 223.369 154.713 223.666C156.565 224.094 158.188 225.192 159.263 226.744C159.378 226.899 159.453 227.08 159.484 227.27C159.514 227.46 159.499 227.655 159.438 227.838C159.034 228.391 158.512 228.85 157.91 229.182C157.308 229.515 156.64 229.714 155.952 229.765C155.047 229.947 154.115 230.049 153.192 230.15C151.132 230.312 149.098 230.715 147.134 231.35C144.627 232.271 142.399 233.81 140.661 235.82C138.923 237.83 137.731 240.246 137.2 242.838C136.703 245.55 136.957 248.344 137.935 250.924C136.892 250.899 135.859 250.949 134.808 250.886C128.891 250.493 123.038 249.441 117.359 247.75ZM194.709 229.626C194.086 230.205 193.406 230.695 192.765 231.253C194.289 221.34 192.148 211.214 186.736 202.735C184.25 199.131 181.457 195.743 178.388 192.608C176.406 190.469 174.423 188.338 172.655 186.039C170.668 183.84 169.19 181.239 168.324 178.417C167.458 175.595 167.224 172.62 167.639 169.699C169.177 164.183 174.639 160.481 180.422 156.562C182.37 155.235 184.319 153.917 186.121 152.526C194.964 145.605 201.383 136.107 204.467 125.378C216.016 140.926 221.401 160.123 219.603 179.335C217.805 198.547 208.948 216.441 194.709 229.626ZM197.7 117.355C196.077 128.683 190.13 138.967 181.08 146.093C179.397 147.387 177.585 148.613 175.765 149.839C168.44 153.639 162.741 159.919 159.709 167.531C158.864 171.665 159.003 175.937 160.115 180.009C161.227 184.08 163.283 187.84 166.118 190.99C168.043 193.475 170.177 195.796 172.322 198.107C175.073 200.914 177.585 203.941 179.833 207.157C182.884 211.931 184.664 217.391 185.008 223.029C185.353 228.667 184.25 234.3 181.802 239.402C171.321 245.766 159.479 249.612 147.225 250.632C146.38 249.786 145.765 248.743 145.436 247.599C145.107 246.456 145.076 245.248 145.344 244.089C145.612 242.93 146.172 241.857 146.971 240.969C147.771 240.081 148.784 239.406 149.916 239.009C151.288 238.6 152.701 238.343 154.13 238.24C155.274 238.108 156.428 237.973 157.556 237.749C159.651 237.49 161.641 236.693 163.329 235.439C165.017 234.185 166.345 232.516 167.181 230.598C167.631 229.337 167.804 227.995 167.688 226.663C167.571 225.33 167.168 224.038 166.506 222.872C165.427 221.093 163.998 219.546 162.305 218.324C160.611 217.101 158.686 216.227 156.645 215.754C154.959 215.382 153.253 215.103 151.535 214.917C149.082 214.808 146.679 214.196 144.477 213.12C142.673 211.714 141.154 209.983 140 208.019C138.123 204.796 135.462 202.088 132.258 200.142C129.936 199.035 127.383 198.482 124.805 198.528C122.227 198.574 119.697 199.218 117.416 200.409C113.554 202.474 110.142 205.273 107.376 208.646C105.393 210.306 103.953 212.511 103.24 214.982C102.526 217.452 102.571 220.077 103.368 222.523C104.837 225.328 107.261 227.528 110.212 228.735C111.199 229.207 112.132 229.78 112.998 230.443C113.949 231.592 114.523 233 114.645 234.48C114.767 235.96 114.431 237.441 113.682 238.727C112.548 241.117 110.773 243.153 108.551 244.614C93.0116 238.087 79.9716 226.844 71.3143 212.507C62.6569 198.169 58.8303 181.481 60.3873 164.851C62.2756 162.753 64.6795 161.171 67.3665 160.261C70.0535 159.35 72.9325 159.141 75.7251 159.653C78.3617 160.408 80.7018 161.943 82.4312 164.052C84.1606 166.161 85.1965 168.742 85.4 171.45C85.4508 172.46 85.4 173.496 85.3484 174.535C84.8378 177.096 85.0536 179.747 85.9721 182.194C86.8905 184.641 88.4757 186.788 90.552 188.399C92.6271 189.743 95.0356 190.498 97.5146 190.58C99.9936 190.662 102.448 190.068 104.609 188.864C113.799 183.113 120.399 174.083 123.04 163.647L124.51 159.332C126.217 153.267 128.765 147.465 132.08 142.092C133.607 139.644 135.658 137.557 138.088 135.978C140.518 134.399 143.269 133.366 146.146 132.953C149.893 132.787 153.538 131.688 156.741 129.758C159.026 128.607 160.917 126.814 162.177 124.606C163.438 122.397 164.012 119.87 163.829 117.34C163.547 115.08 162.686 112.928 161.326 111.09C159.967 109.253 158.154 107.79 156.062 106.841C148.812 103.952 140.913 103.041 133.186 104.203C127.938 104.89 122.604 104.517 117.506 103.105C114.849 102.195 112.528 100.52 110.842 98.2943C120.094 94.5671 130.011 92.7199 140 92.8626C150.793 92.8641 161.474 95.0361 171.393 99.2467C181.311 103.457 190.262 109.617 197.7 117.355ZM207.953 25.9506H219.813C218.75 41.8725 211.612 56.8002 199.844 67.7125C188.076 78.6247 172.557 84.7064 156.427 84.7265H144.567C145.63 68.8046 152.767 53.8767 164.536 42.9644C176.304 32.0522 191.823 25.9706 207.953 25.9506ZM77.1986 39.0068H85.8804C98.5108 39.0223 110.675 43.7291 119.964 52.1955C129.253 60.6618 134.99 72.2702 136.039 84.7222H127.357C114.727 84.7068 102.563 79.9999 93.2734 71.5336C83.9842 63.0672 78.2473 51.4588 77.1986 39.0068Z" fill="black"/>
</svg>
